<?xml version="1.0" standalone="no"?>
<!DOCTYPE svg PUBLIC "-//W3C//DTD SVG 20010904//EN"
 "http://www.w3.org/TR/2001/REC-SVG-20010904/DTD/svg10.dtd">
<svg version="1.0" xmlns="http://www.w3.org/2000/svg"
 width="700.000000pt" height="700.000000pt" viewBox="0 0 700.000000 700.000000"
 preserveAspectRatio="xMidYMid meet">
<metadata>
Created by potrace 1.11, written by Peter Selinger 2001-2013
</metadata>
<g transform="translate(0.000000,700.000000) scale(0.100000,-0.100000)"
fill="#000000" stroke="none">
<path d="M3290 6990 c-166 -22 -227 -34 -345 -66 -347 -95 -674 -287 -931
-549 -87 -88 -208 -235 -233 -282 -11 -21 -18 -22 -124 -22 -436 0 -833 -160
-1141 -459 -248 -241 -419 -567 -471 -897 -22 -140 -27 -368 -11 -465 40 -233
80 -362 165 -530 130 -259 320 -472 566 -632 173 -113 422 -212 590 -234 28
-3 52 -8 55 -10 2 -3 5 -528 5 -1167 1 -855 5 -1175 14 -1210 42 -175 165
-327 325 -405 135 -66 20 -62 1766 -59 1508 2 1587 3 1635 20 169 62 287 159
358 295 75 142 70 62 72 1359 0 639 3 1164 5 1166 3 3 28 7 57 11 28 3 105 22
170 42 565 170 998 637 1122 1208 61 280 45 579 -43 850 -137 418 -445 769
-841 957 -95 46 -246 101 -310 114 -181 37 -237 43 -390 45 l-120 1 -48 67
c-139 195 -335 382 -552 525 -97 64 -313 173 -410 207 -70 25 -247 77 -290 84
-17 3 -41 8 -55 11 -14 3 -47 8 -75 11 -27 4 -54 9 -59 12 -14 8 -395 10 -456
2z m415 -463 c11 -3 60 -12 108 -21 204 -39 412 -126 596 -250 193 -131 329
-271 467 -482 103 -158 158 -194 278 -179 81 10 321 12 371 3 135 -23 211 -47
330 -103 400 -190 658 -600 659 -1050 0 -140 -36 -325 -84 -430 -11 -24 -20
-46 -20 -49 0 -2 -19 -37 -41 -78 -207 -368 -587 -594 -1000 -596 -112 0 -150
3 -257 22 -18 4 -71 19 -117 34 l-84 27 77 80 c114 117 241 282 310 400 97
168 211 453 217 543 10 141 -104 257 -244 247 -115 -9 -173 -67 -225 -225
-153 -463 -467 -805 -926 -1008 -86 -38 -259 -87 -343 -98 -23 -3 -56 -9 -74
-14 -17 -4 -116 -7 -220 -6 -145 2 -211 8 -288 24 -332 70 -605 215 -837 445
-193 193 -334 425 -411 677 -30 97 -68 150 -130 181 -158 81 -351 -49 -333
-225 12 -114 130 -397 240 -574 91 -147 147 -218 290 -368 62 -66 74 -82 59
-87 -10 -2 -56 -16 -103 -30 -124 -36 -140 -39 -300 -42 -153 -4 -234 6 -365
46 -293 88 -560 315 -700 596 -32 65 -78 190 -89 243 -3 14 -8 36 -11 50 -29
126 -23 350 15 501 111 449 488 793 949 866 60 10 289 9 368 -2 124 -16 194
26 281 168 258 423 709 711 1197 763 33 3 61 8 63 9 5 5 304 -3 327 -8z
m-1023 -3531 c163 -70 348 -123 513 -146 44 -6 96 -13 115 -16 48 -7 288 -6
380 1 205 16 520 104 705 197 l91 45 97 -53 c143 -77 288 -132 422 -158 44 -9
89 -18 100 -21 20 -4 20 -10 19 -1137 0 -1280 5 -1188 -77 -1227 -41 -19 -71
-19 -1550 -19 -1469 1 -1508 1 -1546 20 -80 39 -75 -48 -75 1217 -1 736 2
1128 9 1136 6 6 42 17 80 24 150 28 377 115 514 199 33 20 34 20 67 2 18 -11
79 -39 136 -64z"/>
</g>
</svg>
